%TF.GenerationSoftware,Altium Limited,Altium Designer,20.2.4 (192)*%
G04 Layer_Color=65535*
%FSLAX45Y45*%
%MOMM*%
%TF.SameCoordinates,BA2C786E-012B-4E8B-A1C9-5229AEE0ABBE*%
%TF.FilePolarity,Positive*%
%TF.FileFunction,Legend,Top*%
%TF.Part,Single*%
G01*
G75*
%TA.AperFunction,NonConductor*%
%ADD28C,0.20000*%
%ADD29C,0.10000*%
%ADD30C,0.25400*%
D28*
X3725000Y-1648000D02*
G03*
X3725000Y-1648000I-500000J0D01*
G01*
X2235300Y-1874350D02*
G03*
X2235300Y-1884350I0J-5000D01*
G01*
D02*
G03*
X2235300Y-1874350I0J5000D01*
G01*
D02*
G03*
X2235300Y-1884350I0J-5000D01*
G01*
X3564300Y-525000D02*
X3706300D01*
X3236550Y-398000D02*
X3551450D01*
X3556500Y-403050D01*
Y-646950D02*
Y-403050D01*
X3236550Y-652000D02*
X3551450D01*
X3556500Y-646950D01*
X3231200Y-403350D02*
X3236550Y-398000D01*
X3231200Y-646650D02*
Y-403350D01*
Y-646650D02*
X3236550Y-652000D01*
X3424150Y-647250D02*
X3551450Y-519950D01*
X3089200Y-525000D02*
X3231200D01*
X4250000Y-3106200D02*
Y-2964200D01*
X4127750Y-3299150D02*
X4255050Y-3426450D01*
X4123000Y-3111550D02*
X4128350Y-3106200D01*
X4371650D01*
X4377000Y-3111550D01*
X4123000Y-3426450D02*
X4128050Y-3431500D01*
X4123000Y-3426450D02*
Y-3111550D01*
X4128050Y-3431500D02*
X4371950D01*
X4377000Y-3426450D01*
Y-3111550D01*
X4250000Y-3581300D02*
Y-3439300D01*
X4750000Y-3605900D02*
Y-3463900D01*
X4877000Y-3451050D02*
Y-3136150D01*
X4871950Y-3456100D02*
X4877000Y-3451050D01*
X4628050Y-3456100D02*
X4871950D01*
X4623000Y-3451050D02*
Y-3136150D01*
Y-3451050D02*
X4628050Y-3456100D01*
X4871650Y-3130800D02*
X4877000Y-3136150D01*
X4628350Y-3130800D02*
X4871650D01*
X4623000Y-3136150D02*
X4628350Y-3130800D01*
X4627750Y-3323750D02*
X4755050Y-3451050D01*
X4750000Y-3130800D02*
Y-2988800D01*
X538800Y-300000D02*
X680800D01*
X873750Y-422250D02*
X1001050Y-294950D01*
X680800Y-421650D02*
X686150Y-427000D01*
X680800Y-421650D02*
Y-178350D01*
X686150Y-173000D01*
X1001050Y-427000D02*
X1006100Y-421950D01*
X686150Y-427000D02*
X1001050D01*
X1006100Y-421950D02*
Y-178050D01*
X1001050Y-173000D02*
X1006100Y-178050D01*
X686150Y-173000D02*
X1001050D01*
X1013900Y-300000D02*
X1155900D01*
X5925000Y-1400000D02*
Y-150000D01*
X5165000D02*
X5925000D01*
X5165000Y-1650000D02*
Y-150000D01*
Y-1650000D02*
X5575000D01*
X5925000Y-1646900D02*
Y-1400000D01*
X5921900Y-1650000D02*
X5925000Y-1646900D01*
X5575000Y-1650000D02*
X5921900D01*
X1719600Y-980000D02*
Y-600400D01*
Y-980000D02*
X2000000D01*
X2780000D01*
Y-220000D01*
X1720000D02*
X2780000D01*
X1720000Y-600000D02*
Y-220000D01*
X3722000Y-3065900D02*
X3842000D01*
X3775000Y-3053200D02*
Y-2916100D01*
Y-3599300D02*
Y-3472300D01*
X3902000Y-3462200D02*
Y-3065900D01*
X3648000Y-3462200D02*
Y-3065900D01*
X3722000D01*
X3842000D02*
X3902000D01*
X3702300Y-3462200D02*
X3822300D01*
X3648000D02*
X3702300D01*
X3822300D02*
X3902000D01*
X3208000Y-3459100D02*
X3328000D01*
X3275000Y-3608900D02*
Y-3471800D01*
Y-3052700D02*
Y-2925700D01*
X3148000Y-3459100D02*
Y-3062800D01*
X3402000Y-3459100D02*
Y-3062800D01*
X3328000Y-3459100D02*
X3402000D01*
X3148000D02*
X3208000D01*
X3227700Y-3062800D02*
X3347700D01*
X3402000D01*
X3148000D02*
X3227700D01*
X2758000Y-3459100D02*
X2878000D01*
X2825000Y-3608900D02*
Y-3471800D01*
Y-3052700D02*
Y-2925700D01*
X2698000Y-3459100D02*
Y-3062800D01*
X2952000Y-3459100D02*
Y-3062800D01*
X2878000Y-3459100D02*
X2952000D01*
X2698000D02*
X2758000D01*
X2777700Y-3062800D02*
X2897700D01*
X2952000D01*
X2698000D02*
X2777700D01*
X3174200Y-2402000D02*
X3275800D01*
X3225000Y-2452800D02*
Y-2351200D01*
X1370000Y-4005000D02*
Y-3885039D01*
X1449974Y-4005000D01*
Y-3885039D01*
X1569935Y-3905032D02*
X1549942Y-3885039D01*
X1509955D01*
X1489961Y-3905032D01*
Y-3985007D01*
X1509955Y-4005000D01*
X1549942D01*
X1569935Y-3985007D01*
X5827106Y-541800D02*
X5847100Y-521806D01*
Y-481819D01*
X5827106Y-461826D01*
X5747132D01*
X5727139Y-481819D01*
Y-521806D01*
X5747132Y-541800D01*
X5767126D01*
X5787119Y-521806D01*
Y-461826D01*
X5747132Y-421839D02*
X5727139Y-401845D01*
Y-361858D01*
X5747132Y-341865D01*
X5827106D01*
X5847100Y-361858D01*
Y-401845D01*
X5827106Y-421839D01*
X5747132D01*
X5827106Y-301878D02*
X5727139Y-201910D01*
Y-301878D02*
X5707145D01*
Y-281884D01*
X5727139D01*
Y-301878D01*
X5847100Y-221904D02*
X5827106D01*
Y-201910D01*
X5847100D01*
Y-221904D01*
X5727139Y-957126D02*
Y-1037100D01*
X5787119D01*
X5767126Y-997113D01*
Y-977119D01*
X5787119Y-957126D01*
X5827106D01*
X5847100Y-977119D01*
Y-1017106D01*
X5827106Y-1037100D01*
X5747132Y-917139D02*
X5727139Y-897145D01*
Y-857158D01*
X5747132Y-837165D01*
X5827106D01*
X5847100Y-857158D01*
Y-897145D01*
X5827106Y-917139D01*
X5747132D01*
X5827106Y-797178D02*
X5727139Y-697210D01*
Y-797178D02*
X5707145D01*
Y-777184D01*
X5727139D01*
Y-797178D01*
X5847100Y-717204D02*
X5827106D01*
Y-697210D01*
X5847100D01*
Y-717204D01*
X5727139Y-1494300D02*
Y-1414326D01*
X5747132D01*
X5827106Y-1494300D01*
X5847100D01*
X5747132Y-1374339D02*
X5727139Y-1354345D01*
Y-1314358D01*
X5747132Y-1294365D01*
X5827106D01*
X5847100Y-1314358D01*
Y-1354345D01*
X5827106Y-1374339D01*
X5747132D01*
X5827106Y-1254378D02*
X5727139Y-1154410D01*
Y-1254378D02*
X5707145D01*
Y-1234384D01*
X5727139D01*
Y-1254378D01*
X5847100Y-1174404D02*
X5827106D01*
Y-1154410D01*
X5847100D01*
Y-1174404D01*
X1956500Y-400313D02*
X2036474D01*
X1996487Y-360326D02*
Y-440300D01*
X2464500Y-402200D02*
X2544474D01*
X170000Y-4005000D02*
Y-3885039D01*
X249974Y-4005000D01*
Y-3885039D01*
X349942D02*
X309955D01*
X289961Y-3905032D01*
Y-3985007D01*
X309955Y-4005000D01*
X349942D01*
X369935Y-3985007D01*
Y-3905032D01*
X349942Y-3885039D01*
X924974Y-3905032D02*
X904980Y-3885039D01*
X864993D01*
X845000Y-3905032D01*
Y-3985007D01*
X864993Y-4005000D01*
X904980D01*
X924974Y-3985007D01*
D29*
X4101000Y-527000D02*
X4228000Y-400000D01*
X4101000Y-2350000D02*
Y-400000D01*
Y-2350000D02*
X4749000D01*
Y-400000D01*
X4101000D02*
X4749000D01*
X2054325Y-2632200D02*
X2555975D01*
X2051150Y-1667000D02*
X2552800D01*
X2559150Y-2632200D02*
Y-2390900D01*
Y-1908300D02*
Y-1667000D01*
Y-2390900D02*
Y-1908300D01*
X2051150Y-2632200D02*
Y-2308350D01*
Y-2067050D02*
Y-1667000D01*
Y-2308350D02*
Y-2067050D01*
Y-2632200D02*
Y-1667000D01*
D30*
X100000Y-935000D02*
X1650000D01*
X100000Y-2845000D02*
X1650000D01*
X100000D02*
Y-935000D01*
X1650000Y-2845000D02*
Y-935000D01*
X48433Y-198825D02*
Y-351175D01*
X124608D01*
X150000Y-325783D01*
Y-224216D01*
X124608Y-198825D01*
X48433D01*
X200784Y-351175D02*
X251567D01*
X226176D01*
Y-198825D01*
X200784Y-224216D01*
X4598041Y-2548825D02*
Y-2701175D01*
X4674216D01*
X4699608Y-2675784D01*
Y-2574217D01*
X4674216Y-2548825D01*
X4598041D01*
X4851959Y-2701175D02*
X4750392D01*
X4851959Y-2599608D01*
Y-2574217D01*
X4826567Y-2548825D01*
X4775783D01*
X4750392Y-2574217D01*
X4123041Y-2524225D02*
Y-2676576D01*
X4199216D01*
X4224608Y-2651184D01*
Y-2549617D01*
X4199216Y-2524225D01*
X4123041D01*
X4275392Y-2549617D02*
X4300784Y-2524225D01*
X4351567D01*
X4376959Y-2549617D01*
Y-2575008D01*
X4351567Y-2600400D01*
X4326175D01*
X4351567D01*
X4376959Y-2625792D01*
Y-2651184D01*
X4351567Y-2676576D01*
X4300784D01*
X4275392Y-2651184D01*
X3985140Y-143449D02*
X4035924D01*
X4010532D01*
Y-295800D01*
X3985140D01*
X4035924D01*
X4213666Y-168841D02*
X4188274Y-143449D01*
X4137491D01*
X4112099Y-168841D01*
Y-270408D01*
X4137491Y-295800D01*
X4188274D01*
X4213666Y-270408D01*
X4264450Y-295800D02*
X4315233D01*
X4289842D01*
Y-143449D01*
X4264450Y-168841D01*
X1500000Y-248825D02*
X1449217D01*
X1474608D01*
Y-375784D01*
X1449217Y-401175D01*
X1423825D01*
X1398433Y-375784D01*
X1550784Y-401175D02*
X1601567D01*
X1576176D01*
Y-248825D01*
X1550784Y-274217D01*
X5274608Y-1723825D02*
X5223825D01*
X5249217D01*
Y-1850783D01*
X5223825Y-1876175D01*
X5198433D01*
X5173041Y-1850783D01*
X5426959Y-1876175D02*
X5325392D01*
X5426959Y-1774608D01*
Y-1749216D01*
X5401567Y-1723825D01*
X5350784D01*
X5325392Y-1749216D01*
X2548433Y-1123825D02*
Y-1276175D01*
X2650000D01*
X2700784D02*
X2751567D01*
X2726176D01*
Y-1123825D01*
X2700784Y-1149216D01*
X2150000Y-1575783D02*
Y-1474217D01*
X2124608Y-1448825D01*
X2073825D01*
X2048433Y-1474217D01*
Y-1575783D01*
X2073825Y-1601175D01*
X2124608D01*
X2099217Y-1550392D02*
X2150000Y-1601175D01*
X2124608D02*
X2150000Y-1575783D01*
X2200784Y-1601175D02*
X2251567D01*
X2226176D01*
Y-1448825D01*
X2200784Y-1474217D01*
X2723433Y-2698175D02*
Y-2545824D01*
X2799608D01*
X2825000Y-2571216D01*
Y-2622000D01*
X2799608Y-2647392D01*
X2723433D01*
X2774216D02*
X2825000Y-2698175D01*
X2875784D02*
X2926567D01*
X2901176D01*
Y-2545824D01*
X2875784Y-2571216D01*
X3123041Y-2673175D02*
Y-2520825D01*
X3199217D01*
X3224608Y-2546216D01*
Y-2597000D01*
X3199217Y-2622392D01*
X3123041D01*
X3173825D02*
X3224608Y-2673175D01*
X3376959D02*
X3275392D01*
X3376959Y-2571608D01*
Y-2546216D01*
X3351567Y-2520825D01*
X3300784D01*
X3275392Y-2546216D01*
X3642920Y-2685480D02*
Y-2533129D01*
X3719096D01*
X3744488Y-2558521D01*
Y-2609305D01*
X3719096Y-2634697D01*
X3642920D01*
X3693704D02*
X3744488Y-2685480D01*
X3795271Y-2558521D02*
X3820663Y-2533129D01*
X3871446D01*
X3896838Y-2558521D01*
Y-2583913D01*
X3871446Y-2609305D01*
X3846055D01*
X3871446D01*
X3896838Y-2634697D01*
Y-2660088D01*
X3871446Y-2685480D01*
X3820663D01*
X3795271Y-2660088D01*
X111680Y-845380D02*
Y-693029D01*
X187856D01*
X213247Y-718421D01*
Y-769204D01*
X187856Y-794596D01*
X111680D01*
X162464D02*
X213247Y-845380D01*
X365598Y-693029D02*
X264031D01*
Y-845380D01*
X365598D01*
X264031Y-769204D02*
X314814D01*
X416382Y-845380D02*
X467165D01*
X441774D01*
Y-693029D01*
X416382Y-718421D01*
X2998041Y-173825D02*
Y-326175D01*
X3074217D01*
X3099608Y-300783D01*
Y-199217D01*
X3074217Y-173825D01*
X2998041D01*
X3226567Y-326175D02*
Y-173825D01*
X3150392Y-250000D01*
X3251959D01*
%TF.MD5,89c7c1453694c9153e1983018917b236*%
M02*
