%TF.GenerationSoftware,Altium Limited,Altium Designer,20.2.4 (192)*%
G04 Layer_Physical_Order=2*
G04 Layer_Color=16711680*
%FSLAX45Y45*%
%MOMM*%
%TF.SameCoordinates,BA2C786E-012B-4E8B-A1C9-5229AEE0ABBE*%
%TF.FilePolarity,Positive*%
%TF.FileFunction,Copper,L2,Bot,Signal*%
%TF.Part,Single*%
G01*
G75*
%TA.AperFunction,ComponentPad*%
%ADD10C,2.20000*%
%ADD11C,2.40000*%
%ADD12C,1.45000*%
%ADD13C,1.60000*%
%ADD14C,1.80000*%
%ADD15C,1.70000*%
%ADD16C,2.68000*%
%ADD17C,4.50000*%
%TA.AperFunction,Conductor*%
%ADD18C,0.50000*%
%ADD19C,2.50000*%
D10*
X3800400Y-525000D02*
D03*
X3000000D02*
D03*
X4250000Y-2875000D02*
D03*
Y-3675400D02*
D03*
X4750000Y-3700000D02*
D03*
Y-2899600D02*
D03*
X449600Y-300000D02*
D03*
X1250000D02*
D03*
D11*
X5575000Y-1400000D02*
D03*
Y-900000D02*
D03*
Y-400000D02*
D03*
X2000000Y-600000D02*
D03*
X2500000D02*
D03*
D12*
X4806000Y-613000D02*
D03*
Y-867000D02*
D03*
Y-1121000D02*
D03*
Y-1375000D02*
D03*
Y-1629000D02*
D03*
Y-1883000D02*
D03*
Y-2137000D02*
D03*
X4044000D02*
D03*
Y-1883000D02*
D03*
Y-1629000D02*
D03*
Y-1375000D02*
D03*
Y-1121000D02*
D03*
Y-867000D02*
D03*
Y-613000D02*
D03*
D13*
X3775000Y-2850000D02*
D03*
Y-3678000D02*
D03*
X3275000Y-3675000D02*
D03*
Y-2847000D02*
D03*
X2825000Y-3675000D02*
D03*
Y-2847000D02*
D03*
X275000Y-1275000D02*
D03*
X1475000D02*
D03*
X275000Y-2495000D02*
D03*
X1475000D02*
D03*
D14*
X3225000Y-1521000D02*
D03*
Y-1775000D02*
D03*
D15*
X2235300Y-2429000D02*
D03*
X2375000Y-2175000D02*
D03*
X2235300Y-1921000D02*
D03*
D16*
X875000Y-1075000D02*
D03*
D17*
X1500000Y-3600000D02*
D03*
X900000D02*
D03*
X300000D02*
D03*
D18*
X4250000Y-2875000D02*
Y-2828998D01*
X4200000Y-2778999D02*
X4250000Y-2828998D01*
X4080298Y-1955298D02*
X4200000Y-2075000D01*
Y-2778999D02*
Y-2075000D01*
X4300000Y-2275000D02*
Y-1123000D01*
X5575000Y-1400000D02*
X5600000Y-1425000D01*
X4044000Y-867000D02*
X4300000Y-1123000D01*
X5575000Y-2825000D02*
Y-1425000D01*
X4044000Y-1908707D02*
X4080298Y-1945004D01*
X4044000Y-1908707D02*
Y-1883000D01*
X4300000Y-2275000D02*
X4500000Y-2475000D01*
X4080298Y-1955298D02*
Y-1945004D01*
X2235300Y-2429000D02*
X2653300Y-2847000D01*
X2822000D01*
X2825000Y-2850000D01*
X2230150Y-2434150D02*
X2235301Y-2428999D01*
X4725400Y-3675400D02*
X4750000Y-3700000D01*
X4725000Y-3675000D02*
X4750000Y-3650000D01*
X4250000Y-3675400D02*
X4725400D01*
X4249800Y-3675200D02*
X4249800D01*
X4250000Y-3675400D01*
X4247000Y-3678000D02*
X4249800Y-3675200D01*
X4250000Y-3675000D01*
X4225000Y-3650400D02*
X4249800Y-3675200D01*
X3775000Y-3678000D02*
X4247000D01*
X3773500Y-3676500D02*
X3775000Y-3675000D01*
X3276500Y-3676500D02*
X3773500D01*
X3275000Y-3675000D02*
X3276500Y-3676500D01*
X2825000Y-3675000D02*
X3275000D01*
X1250000Y-350000D02*
X1300000D01*
X1475000Y-525000D01*
Y-600000D02*
Y-525000D01*
Y-600000D02*
X2000000D01*
X1475000Y-1275000D02*
Y-600000D01*
X2000000D02*
X2275000Y-325000D01*
X2775000D01*
X2975000Y-525000D01*
X3000000D01*
X449600Y-300000D02*
X450000D01*
X275000Y-474600D02*
X449600Y-300000D01*
X275000Y-775000D02*
Y-474600D01*
Y-1275000D02*
Y-775000D01*
X1100000D01*
X1225000Y-900000D01*
Y-1700000D02*
Y-900000D01*
Y-1700000D02*
X1375000Y-1850000D01*
X1725000D01*
X2050000Y-2175000D01*
X2375000D01*
X4750000Y-2900000D02*
Y-2899600D01*
Y-2868481D01*
X4806000Y-2812481D01*
Y-2137000D01*
X4806000D02*
X4806000D01*
X4429999Y-1760999D02*
X4806000Y-2137000D01*
X4429999Y-1760999D02*
Y-1495000D01*
X4803999Y-1121000D01*
X4806000D01*
X3800000Y-525000D02*
X3800400D01*
X3975400Y-350000D01*
X4543000D01*
X4806000Y-613000D01*
X4044000D02*
X4298000Y-867000D01*
X4792000D01*
X4806000D02*
X4814500Y-858500D01*
X4792000Y-867000D02*
X4800000Y-875000D01*
X4806000Y-867000D02*
X5108000D01*
X5575000Y-400000D01*
X4500000Y-3170710D02*
Y-2475000D01*
Y-3170710D02*
X4529289Y-3200000D01*
X5200000D01*
X5575000Y-2825000D01*
X4044000Y-1369000D02*
Y-1121000D01*
Y-1369000D02*
X4050000Y-1375000D01*
X4044000Y-1619000D02*
Y-1375000D01*
Y-1619000D02*
X4050000Y-1625000D01*
X3737000Y-2137000D02*
X4044000D01*
X3737000D02*
X3775000Y-2175000D01*
Y-2850000D02*
Y-2175000D01*
X3700000Y-2100000D02*
X3737000Y-2137000D01*
X3700000Y-2100000D02*
Y-1825000D01*
X3396000Y-1521000D02*
X3700000Y-1825000D01*
X3225001Y-1521000D02*
X3396000D01*
X3225000Y-1525000D02*
X3225000Y-1525000D01*
Y-1521001D01*
X3220999Y-1524997D02*
X3223001Y-1522998D01*
X3225000Y-1521001D01*
Y-1521000D02*
Y-1150000D01*
X2375001Y-1524997D02*
X3220999D01*
X2975000Y-900000D02*
X3225000Y-1150000D01*
X2235301Y-1664697D02*
X2375001Y-1524997D01*
X2800000Y-900000D02*
X2975000D01*
X2235301Y-1920999D02*
Y-1664697D01*
X2500000Y-600000D02*
X2800000Y-900000D01*
X4665137Y-1883000D02*
X4806000D01*
X4525000Y-1742863D02*
X4665137Y-1883000D01*
X4525000Y-1742863D02*
Y-1513137D01*
X4663137Y-1375000D01*
X4806000D01*
X4806002Y-1374997D01*
X4806000Y-1629000D02*
X4823048D01*
X5552048Y-900000D01*
X5575000D01*
X2825000Y-2175000D02*
X3225000Y-1775000D01*
X2825000Y-2175000D02*
Y-2175000D01*
Y-2397000D02*
Y-2175000D01*
Y-2397000D02*
X3275000Y-2847000D01*
D19*
X1475000Y-3575000D02*
Y-2495000D01*
Y-3575000D02*
X1500000Y-3600000D01*
X875000Y-3575000D02*
Y-1075000D01*
Y-3575000D02*
X900000Y-3600000D01*
X275000Y-3600000D02*
Y-2495000D01*
Y-3600000D02*
X300000Y-3625000D01*
%TF.MD5,b416b8902ce2750a99128b6efd45356f*%
M02*
