%TF.GenerationSoftware,Altium Limited,Altium Designer,20.2.4 (192)*%
G04 Layer_Color=32768*
%FSLAX45Y45*%
%MOMM*%
%TF.SameCoordinates,BA2C786E-012B-4E8B-A1C9-5229AEE0ABBE*%
%TF.FilePolarity,Positive*%
%TF.FileFunction,Other,Mechanical_15*%
%TF.Part,Single*%
G01*
G75*
%TA.AperFunction,NonConductor*%
%ADD31C,0.05000*%
D31*
X3952800Y-677500D02*
Y-372500D01*
X2892500D02*
X3952800D01*
X2892500Y-677500D02*
Y-372500D01*
Y-677500D02*
X3952800D01*
X4097500Y-3827800D02*
Y-2767500D01*
X4402500D01*
Y-3827800D02*
Y-2767500D01*
X4097500Y-3827800D02*
X4402500D01*
X4597500Y-3852400D02*
X4902500D01*
Y-2792100D01*
X4597500D02*
X4902500D01*
X4597500Y-3852400D02*
Y-2792100D01*
X342100Y-452500D02*
X1402400D01*
X342100D02*
Y-147500D01*
X1402400D01*
Y-452500D02*
Y-147500D01*
X5140000Y-1675000D02*
X5950000D01*
X5140000D02*
Y-125000D01*
X5950000D01*
Y-1675000D02*
Y-125000D01*
X1695000Y-1005000D02*
Y-195000D01*
X2805000D01*
Y-1005000D02*
Y-195000D01*
X1695000Y-1005000D02*
X2805000D01*
X3962500Y-2375000D02*
Y-375000D01*
Y-2375000D02*
X4887500D01*
Y-375000D01*
X3962500D02*
X4887500D01*
X3609900Y-3763000D02*
X3940100D01*
X3609900D02*
Y-2761100D01*
X3940100Y-3763000D02*
Y-2761100D01*
X3609900D02*
X3940100D01*
X3109900Y-2762000D02*
X3440100D01*
Y-3763900D02*
Y-2762000D01*
X3109900Y-3763900D02*
Y-2762000D01*
Y-3763900D02*
X3440100D01*
X2659900Y-2762000D02*
X2990100D01*
Y-3763900D02*
Y-2762000D01*
X2659900Y-3763900D02*
Y-2762000D01*
Y-3763900D02*
X2990100D01*
%TF.MD5,e9aec786971a8e0f810acbcbe6e4c983*%
M02*
